<svg xmlns="http://www.w3.org/2000/svg" width="70" height="70" viewBox="0 0 70 70">
  <g id="Group_14848" data-name="Group 14848" transform="translate(-372.999 -796)">
    <g id="Symbol_2" data-name="Symbol 2" transform="translate(372.999 796)">
      <rect id="Rectangle_2147" data-name="Rectangle 2147" width="70" height="70" rx="35" transform="translate(0 0)" fill="#f3f6ff"/>
    </g>
    <g id="Group_1155" data-name="Group 1155" transform="translate(-544.001 -636)">
      <g id="Group_1154" data-name="Group 1154" transform="translate(933 1448)">
        <path id="settings" d="M23.2,10.25l1.312-1.312L23.053,7.478,21.742,8.789A4.1,4.1,0,0,0,20.7,8.351V6.511H18.629V8.342a4.1,4.1,0,0,0-1.082.447L16.236,7.478,14.776,8.938l1.312,1.312a4.1,4.1,0,0,0-.443,1.064H13.775V13.38h1.869a4.1,4.1,0,0,0,.443,1.064l-1.312,1.312,1.461,1.461,1.312-1.312a4.106,4.106,0,0,0,1.082.447v1.831H20.7v-1.84a4.109,4.109,0,0,0,1.047-.438l1.312,1.312,1.461-1.461L23.2,14.444a4.108,4.108,0,0,0,.443-1.064H25.5V11.314H23.646A4.1,4.1,0,0,0,23.2,10.25Zm-5.624,2.1a2.053,2.053,0,0,1,.38-1.191l.495-.495a2.065,2.065,0,1,1-.875,1.686Zm0,0" transform="translate(6.361 6.57)" fill="#404cdc"/>
        <path id="mobile" d="M14.947,30.048a1.458,1.458,0,1,1-1.458-1.458A1.458,1.458,0,0,1,14.947,30.048ZM16.332,5.842H10.5V8.758h5.833ZM26.977,30.614v2.341A4.379,4.379,0,0,1,22.6,37.33H4.375A4.379,4.379,0,0,1,0,32.956V4.375A4.379,4.379,0,0,1,4.375,0H22.6a4.379,4.379,0,0,1,4.375,4.375v2.8a11.812,11.812,0,0,1,0,23.443ZM24.06,32.956V30.614a11.812,11.812,0,0,1,0-23.443v-2.8A1.46,1.46,0,0,0,22.6,2.917H4.375A1.46,1.46,0,0,0,2.916,4.375V32.956a1.46,1.46,0,0,0,1.458,1.458H22.6a1.46,1.46,0,0,0,1.458-1.458ZM34.414,18.893a8.9,8.9,0,1,0-8.9,8.9A8.905,8.905,0,0,0,34.414,18.893Z" transform="translate(0 0)" fill="#404cdc"/>
      </g>
    </g>
  </g>
</svg>
